<svg xmlns="http://www.w3.org/2000/svg" version="1.1" xmlns:xlink="http://www.w3.org/1999/xlink" xmlns:svgjs="http://svgjs.dev/svgjs" width="1500" height="1500" viewBox="0 0 1500 1500"><rect width="1500" height="1500" fill="#ffffff"></rect><g transform="matrix(0.6666666666666666,0,0,0.6666666666666666,249.85778443113782,249.85778443113765)"><svg viewBox="0 0 334 334" data-background-color="#ffffff" preserveAspectRatio="xMidYMid meet" height="1500" width="1500" xmlns="http://www.w3.org/2000/svg" xmlns:xlink="http://www.w3.org/1999/xlink"><g id="tight-bounds" transform="matrix(1,0,0,1,0.04749999999998522,0.04750000000001364)"><svg viewBox="0 0 333.90454557049503 333.90454557049503" height="333.90454557049503" width="333.90454557049503"><g><svg></svg></g><g><svg viewBox="0 0 333.90454557049503 333.90454557049503" height="333.90454557049503" width="333.90454557049503"><g><path d="M0 166.952c0-92.205 74.747-166.952 166.952-166.952 92.205 0 166.952 74.747 166.953 166.952 0 92.205-74.747 166.952-166.953 166.953-92.205 0-166.952-74.747-166.952-166.953zM166.952 329.235c89.626 0 162.283-72.657 162.283-162.283 0-89.626-72.657-162.283-162.283-162.283-89.626 0-162.283 72.657-162.283 162.283 0 89.626 72.657 162.283 162.283 162.283z" data-fill-palette-color="tertiary" fill="#000000" stroke="transparent"></path><ellipse rx="160.27418187383762" ry="160.27418187383762" cx="166.95227278524752" cy="166.95227278524752" fill="#000000" stroke="transparent" stroke-width="0" fill-opacity="1" data-fill-palette-color="tertiary"></ellipse></g><g transform="matrix(1,0,0,1,92.63921015159082,71.17305217166896)"><svg viewBox="0 0 148.6261252673134 191.55844122715712" height="191.55844122715712" width="148.6261252673134"><g><svg viewBox="0 0 148.6261252673134 191.55844122715712" height="191.55844122715712" width="148.6261252673134"><g><svg viewBox="0 0 213.1584412271571 274.7316372706706" height="191.55844122715712" width="148.6261252673134"><g transform="matrix(1,0,0,1,0,166.33982291998737)"><svg viewBox="0 0 213.1584412271571 108.3918143506832" height="108.3918143506832" width="213.1584412271571"><g id="textblocktransform"><svg viewBox="0 0 213.1584412271571 108.3918143506832" height="108.3918143506832" width="213.1584412271571" id="textblock"><g><svg viewBox="0 0 213.1584412271571 74.25796523322131" height="74.25796523322131" width="213.1584412271571"><g transform="matrix(1,0,0,1,0,0)"><svg width="213.1584412271571" viewBox="2.5 -35.5 111.94 39" height="74.25796523322131" data-palette-color="#ffffff"><path d="M8.8-8.65L14.75-4.75 20.05-5 25.4-14.6 25-25.4 21.6-30.35 10.7-31.8 6.8-25.6 6.05-13.55 8.8-8.65ZM24.5-0.75L29.9-0.15 28.8 3.5 22.55 2 19.3-0.85 11.25-0.65 2.5-10.5 3-27.5 9.55-34.8 20.8-35 27.55-29.1 29.8-13.3 22.7-1.85 24.5-0.75ZM60.2-6.5L62.4-2.7 55.05 0.8 52.25 0.05 51.35-2.85 50.7-6.3 41.85 0.75 36.65-1.05 35.15-6.95 35-22.35 32.9-23.25 33.05-24.45 42-24.65 41.75-22.85 39.15-21.8 39.15-7.7 41-3.25 44.25-5.05 50.3-8.4 51.1-22.3 48.9-23.3 49.05-24.65 56.95-24.65 57.2-22.95 54.6-21.95 54.45-3.4 55.2-2.15 60.2-6.5ZM78-13.1L73.75-12.95 68.15-9.2 68-3.6 70-2.55Q71-2.6 71.84-2.65L71.84-2.65Q72.55-2.7 73.12-2.78 73.7-2.85 73.7-2.95L73.7-2.95Q73.7-2.95 73.9-3.25 74.09-3.55 74.42-4.03 74.75-4.5 75.15-5.08 75.55-5.65 76-6.25L76-6.25Q77-7.65 78.34-9.45L78.34-9.45 78-13.1ZM65.3-22.8L70.55-26.45 81.84-23.8 82.05-3.25 86.3-2.95 86.34-0.65 80.15-0.05 78.05-4.45 75.45-0.35 67 1.25 63.9-2.5 64.09-10.1 72.65-15.65 77.95-16.35 78.34-21.8 70-22.9 67.55-18.65 64.8-21.55 65.3-22.8ZM100.04-0.75L100.24 0.65 90.24 0.75 89.99-0.7 92.64-1.75 92.84-22.9 89.19-24.15 88.84-25.4 99.24-26 99.74-25 96.69-23.3 96.49-1.8 100.04-0.75ZM97.19-30.8L93.39-29.2 91.69-32.6 93.74-34.55 96.94-34.15 97.19-30.8ZM114.19-1.95L114.44-0.05 103.89-0.25 103.74-1.55 107.34-2.6 107.34-32.6 104.69-32.05 104.89-35.35 111.24-35.5 110.79-2.65 114.19-1.95Z" opacity="1" transform="matrix(1,0,0,1,0,0)" fill="#ffffff" class="wordmark-text-0" data-fill-palette-color="quaternary" id="text-0"></path></svg></g></svg></g><g transform="matrix(1,0,0,1,0,91.78848863361927)"><svg viewBox="0 0 213.1584412271571 16.603325717063942" height="16.603325717063942" width="213.1584412271571"><g transform="matrix(1,0,0,1,0,0)"><svg width="213.1584412271571" viewBox="4.25 -37 603.33 47" height="16.603325717063942" data-palette-color="#ffffff"><path d="M4.25 0L4.25-37 8.25-37 8.25-21.6 8.45-21.6Q9.45-24.05 11.38-25.23 13.3-26.4 16-26.4L16-26.4Q18.4-26.4 20.35-25.45 22.3-24.5 23.68-22.75 25.05-21 25.78-18.5 26.5-16 26.5-12.9L26.5-12.9Q26.5-9.8 25.78-7.3 25.05-4.8 23.68-3.05 22.3-1.3 20.35-0.35 18.4 0.6 16 0.6L16 0.6Q10.75 0.6 8.45-4.2L8.45-4.2 8.25-4.2 8.25 0 4.25 0ZM14.9-3L14.9-3Q18.3-3 20.25-5.13 22.2-7.25 22.2-10.7L22.2-10.7 22.2-15.1Q22.2-18.55 20.25-20.68 18.3-22.8 14.9-22.8L14.9-22.8Q13.55-22.8 12.33-22.43 11.1-22.05 10.2-21.4 9.3-20.75 8.78-19.83 8.25-18.9 8.25-17.85L8.25-17.85 8.25-8.25Q8.25-7 8.78-6.03 9.3-5.05 10.2-4.38 11.1-3.7 12.33-3.35 13.55-3 14.9-3ZM49.15 0L49.15-4.2 48.95-4.2Q48.55-3.3 47.97-2.43 47.4-1.55 46.55-0.88 45.7-0.2 44.5 0.2 43.3 0.6 41.7 0.6L41.7 0.6Q37.7 0.6 35.35-1.98 33-4.55 33-9.25L33-9.25 33-25.8 37-25.8 37-9.95Q37-3 42.9-3L42.9-3Q44.1-3 45.22-3.3 46.35-3.6 47.22-4.2 48.1-4.8 48.62-5.73 49.15-6.65 49.15-7.95L49.15-7.95 49.15-25.8 53.15-25.8 53.15 0 49.15 0ZM71.3-8.25L77.55-25.8 81.5-25.8 69.95 6Q69.5 7.15 69.05 7.93 68.59 8.7 67.95 9.15 67.3 9.6 66.32 9.8 65.34 10 63.95 10L63.95 10 61.9 10 61.9 6.5 65.95 6.5 67.9 1 58.25-25.8 62.25-25.8 68.45-8.25 69.65-4.05 69.9-4.05 71.3-8.25ZM86.39-5.85L86.39-5.85Q87.99-5.85 88.72-5.03 89.44-4.2 89.44-2.9L89.44-2.9 89.44-2.2Q89.44-0.15 88.24 2.33 87.04 4.8 84.89 6.65L84.89 6.65 81.54 6.65Q83.04 5.05 83.97 3.63 84.89 2.2 85.29 0.45L85.29 0.45Q84.29 0.2 83.82-0.5 83.34-1.2 83.34-2.2L83.34-2.2 83.34-2.9Q83.34-4.2 84.07-5.03 84.79-5.85 86.39-5.85ZM109.24 0L109.24-37 113.24-37 113.24-21.6 113.44-21.6Q114.44-24.05 116.36-25.23 118.29-26.4 120.99-26.4L120.99-26.4Q123.39-26.4 125.34-25.45 127.29-24.5 128.66-22.75 130.04-21 130.76-18.5 131.49-16 131.49-12.9L131.49-12.9Q131.49-9.8 130.76-7.3 130.04-4.8 128.66-3.05 127.29-1.3 125.34-0.35 123.39 0.6 120.99 0.6L120.99 0.6Q115.74 0.6 113.44-4.2L113.44-4.2 113.24-4.2 113.24 0 109.24 0ZM119.89-3L119.89-3Q123.29-3 125.24-5.13 127.19-7.25 127.19-10.7L127.19-10.7 127.19-15.1Q127.19-18.55 125.24-20.68 123.29-22.8 119.89-22.8L119.89-22.8Q118.54-22.8 117.31-22.43 116.09-22.05 115.19-21.4 114.29-20.75 113.76-19.83 113.24-18.9 113.24-17.85L113.24-17.85 113.24-8.25Q113.24-7 113.76-6.03 114.29-5.05 115.19-4.38 116.09-3.7 117.31-3.35 118.54-3 119.89-3ZM147.99 0.6L147.99 0.6Q145.39 0.6 143.24-0.35 141.09-1.3 139.56-3.08 138.04-4.85 137.19-7.33 136.34-9.8 136.34-12.9L136.34-12.9Q136.34-15.95 137.19-18.45 138.04-20.95 139.56-22.73 141.09-24.5 143.24-25.45 145.39-26.4 147.99-26.4L147.99-26.4Q150.59-26.4 152.71-25.45 154.84-24.5 156.39-22.73 157.94-20.95 158.79-18.45 159.64-15.95 159.64-12.9L159.64-12.9Q159.64-9.8 158.79-7.33 157.94-4.85 156.39-3.08 154.84-1.3 152.71-0.35 150.59 0.6 147.99 0.6ZM147.99-2.95L147.99-2.95Q151.24-2.95 153.29-4.95 155.34-6.95 155.34-11.05L155.34-11.05 155.34-14.75Q155.34-18.85 153.29-20.85 151.24-22.85 147.99-22.85L147.99-22.85Q144.74-22.85 142.69-20.85 140.64-18.85 140.64-14.75L140.64-14.75 140.64-11.05Q140.64-6.95 142.69-4.95 144.74-2.95 147.99-2.95ZM170.23 0L166.23 0 166.23-25.8 170.23-25.8 170.23-21.05 170.48-21.05Q171.18-22.9 172.98-24.35 174.78-25.8 177.93-25.8L177.93-25.8 179.48-25.8 179.48-21.8 177.13-21.8Q173.88-21.8 172.06-20.58 170.23-19.35 170.23-17.5L170.23-17.5 170.23 0ZM188.58 0L184.58 0 184.58-25.8 188.58-25.8 188.58-21.05 188.83-21.05Q189.53-22.9 191.33-24.35 193.13-25.8 196.28-25.8L196.28-25.8 197.83-25.8 197.83-21.8 195.48-21.8Q192.23-21.8 190.41-20.58 188.58-19.35 188.58-17.5L188.58-17.5 188.58 0ZM212.43 0.6L212.43 0.6Q209.83 0.6 207.68-0.35 205.53-1.3 204-3.08 202.48-4.85 201.63-7.33 200.78-9.8 200.78-12.9L200.78-12.9Q200.78-15.95 201.63-18.45 202.48-20.95 204-22.73 205.53-24.5 207.68-25.45 209.83-26.4 212.43-26.4L212.43-26.4Q215.03-26.4 217.15-25.45 219.28-24.5 220.83-22.73 222.38-20.95 223.23-18.45 224.08-15.95 224.08-12.9L224.08-12.9Q224.08-9.8 223.23-7.33 222.38-4.85 220.83-3.08 219.28-1.3 217.15-0.35 215.03 0.6 212.43 0.6ZM212.43-2.95L212.43-2.95Q215.68-2.95 217.73-4.95 219.78-6.95 219.78-11.05L219.78-11.05 219.78-14.75Q219.78-18.85 217.73-20.85 215.68-22.85 212.43-22.85L212.43-22.85Q209.18-22.85 207.13-20.85 205.08-18.85 205.08-14.75L205.08-14.75 205.08-11.05Q205.08-6.95 207.13-4.95 209.18-2.95 212.43-2.95ZM234.63 0L227.73-25.8 231.63-25.8 234.38-14.65 237.13-3.35 237.23-3.35 240.38-14.65 243.63-25.8 247.18-25.8 250.53-14.65 253.73-3.35 253.83-3.35 256.48-14.65 259.28-25.8 263.03-25.8 256.18 0 251.23 0 247.63-12.4 245.38-20.25 245.28-20.25 243.08-12.4 239.48 0 234.63 0ZM301.62 0L299.37 0Q297.12 0 296.15-1.2 295.17-2.4 294.92-4.2L294.92-4.2 294.67-4.2Q293.82-1.8 291.87-0.6 289.92 0.6 287.22 0.6L287.22 0.6Q283.12 0.6 280.85-1.5 278.57-3.6 278.57-7.2L278.57-7.2Q278.57-10.85 281.25-12.8 283.92-14.75 289.57-14.75L289.57-14.75 294.67-14.75 294.67-17.3Q294.67-20.05 293.17-21.5 291.67-22.95 288.57-22.95L288.57-22.95Q286.22-22.95 284.65-21.9 283.07-20.85 282.02-19.1L282.02-19.1 279.62-21.35Q280.67-23.45 282.97-24.93 285.27-26.4 288.77-26.4L288.77-26.4Q293.47-26.4 296.07-24.1 298.67-21.8 298.67-17.7L298.67-17.7 298.67-3.5 301.62-3.5 301.62 0ZM287.87-2.8L287.87-2.8Q289.37-2.8 290.62-3.15 291.87-3.5 292.77-4.15 293.67-4.8 294.17-5.65 294.67-6.5 294.67-7.5L294.67-7.5 294.67-11.75 289.37-11.75Q285.92-11.75 284.35-10.75 282.77-9.75 282.77-7.85L282.77-7.85 282.77-6.8Q282.77-4.9 284.15-3.85 285.52-2.8 287.87-2.8ZM311.32 0L307.32 0 307.32-25.8 311.32-25.8 311.32-21.6 311.52-21.6Q312.47-23.8 314.19-25.1 315.92-26.4 318.82-26.4L318.82-26.4Q322.82-26.4 325.14-23.83 327.47-21.25 327.47-16.55L327.47-16.55 327.47 0 323.47 0 323.47-15.85Q323.47-22.8 317.62-22.8L317.62-22.8Q316.42-22.8 315.29-22.5 314.17-22.2 313.27-21.6 312.37-21 311.84-20.08 311.32-19.15 311.32-17.9L311.32-17.9 311.32 0ZM352.22 0L352.22-4.2 352.02-4.2Q349.67 0.6 344.47 0.6L344.47 0.6Q342.07 0.6 340.12-0.35 338.17-1.3 336.79-3.05 335.42-4.8 334.69-7.3 333.97-9.8 333.97-12.9L333.97-12.9Q333.97-16 334.69-18.5 335.42-21 336.79-22.75 338.17-24.5 340.12-25.45 342.07-26.4 344.47-26.4L344.47-26.4Q347.17-26.4 349.09-25.23 351.02-24.05 352.02-21.6L352.02-21.6 352.22-21.6 352.22-37 356.22-37 356.22 0 352.22 0ZM345.57-3L345.57-3Q346.92-3 348.14-3.35 349.37-3.7 350.27-4.38 351.17-5.05 351.69-6.03 352.22-7 352.22-8.25L352.22-8.25 352.22-17.85Q352.22-18.9 351.69-19.83 351.17-20.75 350.27-21.4 349.37-22.05 348.14-22.43 346.92-22.8 345.57-22.8L345.57-22.8Q342.17-22.8 340.22-20.68 338.27-18.55 338.27-15.1L338.27-15.1 338.27-10.7Q338.27-7.25 340.22-5.13 342.17-3 345.57-3ZM384.26 0.6L384.26 0.6Q380.66 0.6 378.24-0.78 375.81-2.15 374.06-4.45L374.06-4.45 376.91-6.75Q378.41-4.85 380.26-3.83 382.11-2.8 384.56-2.8L384.56-2.8Q387.11-2.8 388.54-3.9 389.96-5 389.96-7L389.96-7Q389.96-8.5 388.99-9.58 388.01-10.65 385.46-11.05L385.46-11.05 383.41-11.35Q381.61-11.6 380.11-12.13 378.61-12.65 377.49-13.53 376.36-14.4 375.74-15.7 375.11-17 375.11-18.8L375.11-18.8Q375.11-20.7 375.81-22.13 376.51-23.55 377.74-24.5 378.96-25.45 380.66-25.93 382.36-26.4 384.31-26.4L384.31-26.4Q387.46-26.4 389.59-25.3 391.71-24.2 393.31-22.25L393.31-22.25 390.66-19.85Q389.81-21.05 388.16-22.03 386.51-23 384.01-23L384.01-23Q381.51-23 380.24-21.93 378.96-20.85 378.96-19L378.96-19Q378.96-17.1 380.24-16.25 381.51-15.4 383.91-15L383.91-15 385.91-14.7Q390.21-14.05 392.01-12.23 393.81-10.4 393.81-7.45L393.81-7.45Q393.81-3.7 391.26-1.55 388.71 0.6 384.26 0.6ZM410.56 0.6L410.56 0.6Q407.91 0.6 405.78-0.35 403.66-1.3 402.13-3.08 400.61-4.85 399.78-7.33 398.96-9.8 398.96-12.9L398.96-12.9Q398.96-15.95 399.78-18.45 400.61-20.95 402.13-22.73 403.66-24.5 405.78-25.45 407.91-26.4 410.56-26.4L410.56-26.4Q413.16-26.4 415.21-25.45 417.26-24.5 418.71-22.83 420.16-21.15 420.93-18.85 421.71-16.55 421.71-13.8L421.71-13.8 421.71-11.9 403.16-11.9 403.16-10.7Q403.16-9.05 403.68-7.63 404.21-6.2 405.18-5.15 406.16-4.1 407.58-3.5 409.01-2.9 410.81-2.9L410.81-2.9Q413.26-2.9 415.08-4.05 416.91-5.2 417.91-7.35L417.91-7.35 420.76-5.3Q419.51-2.65 416.86-1.03 414.21 0.6 410.56 0.6ZM410.56-23.05L410.56-23.05Q408.91-23.05 407.56-22.48 406.21-21.9 405.23-20.85 404.26-19.8 403.71-18.38 403.16-16.95 403.16-15.25L403.16-15.25 403.16-14.9 417.41-14.9 417.41-15.45Q417.41-18.9 415.53-20.98 413.66-23.05 410.56-23.05ZM436.11 0L432.56 0Q430.46 0 429.38-1.18 428.31-2.35 428.31-4.15L428.31-4.15 428.31-37 432.31-37 432.31-3.5 436.11-3.5 436.11 0ZM449.45 0L445.9 0Q443.8 0 442.73-1.18 441.65-2.35 441.65-4.15L441.65-4.15 441.65-37 445.65-37 445.65-3.5 449.45-3.5 449.45 0ZM467.05 0L467.05-37 471.05-37 471.05-21.6 471.25-21.6Q472.25-24.05 474.17-25.23 476.1-26.4 478.8-26.4L478.8-26.4Q481.2-26.4 483.15-25.45 485.1-24.5 486.47-22.75 487.85-21 488.57-18.5 489.3-16 489.3-12.9L489.3-12.9Q489.3-9.8 488.57-7.3 487.85-4.8 486.47-3.05 485.1-1.3 483.15-0.35 481.2 0.6 478.8 0.6L478.8 0.6Q473.55 0.6 471.25-4.2L471.25-4.2 471.05-4.2 471.05 0 467.05 0ZM477.7-3L477.7-3Q481.1-3 483.05-5.13 485-7.25 485-10.7L485-10.7 485-15.1Q485-18.55 483.05-20.68 481.1-22.8 477.7-22.8L477.7-22.8Q476.35-22.8 475.12-22.43 473.9-22.05 473-21.4 472.1-20.75 471.57-19.83 471.05-18.9 471.05-17.85L471.05-17.85 471.05-8.25Q471.05-7 471.57-6.03 472.1-5.05 473-4.38 473.9-3.7 475.12-3.35 476.35-3 477.7-3ZM505.8 0.6L505.8 0.6Q503.2 0.6 501.05-0.35 498.9-1.3 497.37-3.08 495.85-4.85 495-7.33 494.15-9.8 494.15-12.9L494.15-12.9Q494.15-15.95 495-18.45 495.85-20.95 497.37-22.73 498.9-24.5 501.05-25.45 503.2-26.4 505.8-26.4L505.8-26.4Q508.4-26.4 510.52-25.45 512.65-24.5 514.2-22.73 515.75-20.95 516.6-18.45 517.45-15.95 517.45-12.9L517.45-12.9Q517.45-9.8 516.6-7.33 515.75-4.85 514.2-3.08 512.65-1.3 510.52-0.35 508.4 0.6 505.8 0.6ZM505.8-2.95L505.8-2.95Q509.05-2.95 511.1-4.95 513.15-6.95 513.15-11.05L513.15-11.05 513.15-14.75Q513.15-18.85 511.1-20.85 509.05-22.85 505.8-22.85L505.8-22.85Q502.55-22.85 500.5-20.85 498.45-18.85 498.45-14.75L498.45-14.75 498.45-11.05Q498.45-6.95 500.5-4.95 502.55-2.95 505.8-2.95ZM533.79 0.6L533.79 0.6Q531.19 0.6 529.04-0.35 526.89-1.3 525.37-3.08 523.84-4.85 522.99-7.33 522.14-9.8 522.14-12.9L522.14-12.9Q522.14-15.95 522.99-18.45 523.84-20.95 525.37-22.73 526.89-24.5 529.04-25.45 531.19-26.4 533.79-26.4L533.79-26.4Q536.39-26.4 538.52-25.45 540.64-24.5 542.19-22.73 543.74-20.95 544.59-18.45 545.44-15.95 545.44-12.9L545.44-12.9Q545.44-9.8 544.59-7.33 543.74-4.85 542.19-3.08 540.64-1.3 538.52-0.35 536.39 0.6 533.79 0.6ZM533.79-2.95L533.79-2.95Q537.04-2.95 539.09-4.95 541.14-6.95 541.14-11.05L541.14-11.05 541.14-14.75Q541.14-18.85 539.09-20.85 537.04-22.85 533.79-22.85L533.79-22.85Q530.54-22.85 528.49-20.85 526.44-18.85 526.44-14.75L526.44-14.75 526.44-11.05Q526.44-6.95 528.49-4.95 530.54-2.95 533.79-2.95ZM552.04 0L552.04-37 556.04-37 556.04-13.55 556.24-13.55 560.19-17.95 567.49-25.8 572.34-25.8 562.79-15.6 573.29 0 568.44 0 559.89-13.15 556.04-9.2 556.04 0 552.04 0ZM585.64 0.6L585.64 0.6Q582.04 0.6 579.61-0.78 577.19-2.15 575.44-4.45L575.44-4.45 578.29-6.75Q579.79-4.85 581.64-3.83 583.49-2.8 585.94-2.8L585.94-2.8Q588.49-2.8 589.91-3.9 591.34-5 591.34-7L591.34-7Q591.34-8.5 590.36-9.58 589.39-10.65 586.84-11.05L586.84-11.05 584.79-11.35Q582.99-11.6 581.49-12.13 579.99-12.65 578.86-13.53 577.74-14.4 577.11-15.7 576.49-17 576.49-18.8L576.49-18.8Q576.49-20.7 577.19-22.13 577.89-23.55 579.11-24.5 580.34-25.45 582.04-25.93 583.74-26.4 585.69-26.4L585.69-26.4Q588.84-26.4 590.96-25.3 593.09-24.2 594.69-22.25L594.69-22.25 592.04-19.85Q591.19-21.05 589.54-22.03 587.89-23 585.39-23L585.39-23Q582.89-23 581.61-21.93 580.34-20.85 580.34-19L580.34-19Q580.34-17.1 581.61-16.25 582.89-15.4 585.29-15L585.29-15 587.29-14.7Q591.59-14.05 593.39-12.23 595.19-10.4 595.19-7.45L595.19-7.45Q595.19-3.7 592.64-1.55 590.09 0.6 585.64 0.6ZM604.53 0.6L604.53 0.6Q602.93 0.6 602.21-0.2 601.48-1 601.48-2.3L601.48-2.3 601.48-2.95Q601.48-4.25 602.21-5.05 602.93-5.85 604.53-5.85L604.53-5.85Q606.13-5.85 606.86-5.05 607.58-4.25 607.58-2.95L607.58-2.95 607.58-2.3Q607.58-1 606.86-0.2 606.13 0.6 604.53 0.6Z" opacity="1" transform="matrix(1,0,0,1,0,0)" fill="#ffffff" class="slogan-text-1" data-fill-palette-color="quaternary" id="text-1"></path></svg></g></svg></g></svg></g></svg></g><g transform="matrix(1,0,0,1,40.713262274387006,0)"><svg viewBox="0 0 131.7319166783831 148.80929951958942" height="148.80929951958942" width="131.7319166783831"><g><svg xmlns="http://www.w3.org/2000/svg" xmlns:xlink="http://www.w3.org/1999/xlink" version="1.1" x="0" y="0" viewBox="6.891 1.1219999999999999 85.824 96.95" enable-background="new 0 0 100 100" xml:space="preserve" height="148.80929951958942" width="131.7319166783831" class="icon-icon-0" data-fill-palette-color="quaternary" id="icon-0"><g fill="#ffffff" data-fill-palette-color="quaternary"><path fill="#ffffff" d="M64.008 72.381c4.002-3.149 12.23-11.582 15.089-21.179-6.511-8.01-33.912-42.187-40.238-50.08C38.212 8.613 31.63 24.377 20.21 29.646c-5.247 2.56-10.477 4.156-12.467 4.721l39.077 47.32C51.235 80.263 59.958 75.56 64.008 72.381z" data-fill-palette-color="quaternary"></path><g fill="#ffffff" data-fill-palette-color="quaternary"><g fill="#ffffff" data-fill-palette-color="quaternary"><path fill="#ffffff" d="M90.405 75.352c-6.5 3.781-13.381 7.281-20.674 9.929-8.632 3.134-19.05 6.681-22.386 7.664v5.127l43.046-15.479L90.405 75.352z" data-fill-palette-color="quaternary"></path><polygon fill="#ffffff" points="6.891,35.865 6.891,50.088 45.703,97.945 45.736,82.902    " data-fill-palette-color="quaternary"></polygon></g><path fill="#ffffff" d="M88.717 70.42c-5.018 3.936-11.386 7.921-18.278 11.363-6.521 3.266-20.879 7.668-23.093 8.339v1.144c3.686-1.09 13.036-3.898 21.237-7.013 9.104-3.457 22.12-11.628 22.12-11.628L88.717 70.42z" data-fill-palette-color="quaternary"></path></g><path fill="#ffffff" d="M80.877 50.835l-0.114 0.403c-2.851 10.142-11.25 18.858-15.762 22.409-4.225 3.319-13.009 8.054-17.655 9.561v2.168c6.53-2.034 15.656-6.36 20.721-9.922 8.699-6.128 17.195-14.63 22.419-22.404l0.047 0.036C84.648 46.442 51.938 9.001 49.818 6.309c-0.719 1.357-1.368 2.265-2.422 2.887 10.832 13.508 28.598 35.647 33.217 41.314L80.877 50.835z" data-fill-palette-color="quaternary"></path><path fill="#ffffff" d="M87.321 59.925c0 0-11.588 12.1-18.328 16.846-5.696 4.008-14.5 7.942-21.647 10.168v1.498c0.692-0.212 1.838-0.566 3.268-1.021 5.266-1.677 14.41-4.722 19.106-7.072 9.305-4.648 17.623-10.274 22.834-15.386 0.054-0.053 0.106-0.106 0.161-0.16L87.321 59.925z" data-fill-palette-color="quaternary"></path></g></svg></g></svg></g><g></g></svg></g></svg></g></svg></g></svg></g><defs></defs></svg><rect width="333.90454557049503" height="333.90454557049503" fill="none" stroke="none" visibility="hidden"></rect></g></svg></g></svg>