<svg width="1440" height="900" viewBox="0 0 1440 900" fill="none" xmlns="http://www.w3.org/2000/svg">
<g clip-path="url(#clip0_1147_989)">
<rect width="1440" height="900" fill="white"/>
<path d="M654.8 407.6V446C654.8 453.872 650.48 458.288 641.84 459.248L644.72 471.632H638.96L636.08 459.344C626.8 458.576 622.16 454.128 622.16 446V407.6C622.16 403.312 623.504 400.016 626.192 397.712C628.944 395.344 633.008 394.16 638.384 394.16C643.824 394.16 647.92 395.344 650.672 397.712C653.424 400.016 654.8 403.312 654.8 407.6ZM648.08 446V407.6C648.08 402.48 644.88 399.92 638.48 399.92C632.08 399.92 628.88 402.48 628.88 407.6V446C628.88 451.12 632.08 453.68 638.48 453.68C644.88 453.68 648.08 451.12 648.08 446ZM697.498 446V395.6H704.218V446C704.218 450.288 702.842 453.616 700.09 455.984C697.402 458.288 693.338 459.44 687.898 459.44C682.522 459.44 678.458 458.288 675.706 455.984C672.954 453.616 671.578 450.288 671.578 446V395.6H678.298V446C678.298 451.12 681.498 453.68 687.898 453.68C694.298 453.68 697.498 451.12 697.498 446ZM730.765 395.6H740.845L754.957 458H748.237L744.973 443.6H726.637L723.373 458H716.653L730.765 395.6ZM735.757 403.088L727.885 437.84H743.629L735.757 403.088ZM781.79 452.24V458H765.47V452.24H770.27V401.36H765.47V395.6H781.79V401.36H776.99V452.24H781.79ZM798.069 458V395.6H804.789V452.24H822.357V458H798.069Z" fill="#3D3C3C"/>
<g opacity="0.8">
<path d="M550 405.308C550 402.043 551.297 398.913 553.605 396.605C555.913 394.297 559.043 393 562.308 393H586.923C587.739 393 588.522 393.324 589.099 393.901C589.676 394.478 590 395.261 590 396.077V445.308C590 446.124 589.676 446.906 589.099 447.483C588.522 448.06 587.739 448.385 586.923 448.385H562.308C559.043 448.385 555.913 449.681 553.605 451.989C551.297 454.298 550 457.428 550 460.692" stroke="#3D3C3C" stroke-width="2" stroke-linecap="round" stroke-linejoin="round"/>
<path d="M510 445.308C510 446.124 510.324 446.906 510.901 447.483C511.478 448.06 512.261 448.385 513.077 448.385H537.692C540.957 448.385 544.087 449.681 546.395 451.989C548.703 454.298 550 457.428 550 460.692V405.308C550 402.043 548.703 398.913 546.395 396.605C544.087 394.297 540.957 393 537.692 393H513.077C512.261 393 511.478 393.324 510.901 393.901C510.324 394.478 510 395.261 510 396.077V445.308Z" stroke="#3D3C3C" stroke-width="2" stroke-linecap="round" stroke-linejoin="round"/>
<path d="M199.32 748.541C192.93 734.369 192.417 718.245 197.895 703.717C203.372 689.189 214.391 677.446 228.527 671.072L335.128 623.008C338.662 621.415 342.686 621.294 346.314 622.673C349.943 624.051 352.879 626.816 354.476 630.359L450.851 844.105C452.448 847.649 452.576 851.679 451.207 855.312C449.838 858.944 447.083 861.879 443.549 863.473L336.948 911.537C322.812 917.911 311.793 929.653 306.316 944.181C300.838 958.71 301.351 974.833 307.741 989.006" fill="#FDBF0F"/>
<path d="M199.32 748.541C192.93 734.369 192.417 718.245 197.895 703.717C203.372 689.189 214.391 677.446 228.527 671.072L335.128 623.008C338.662 621.415 342.686 621.294 346.314 622.673C349.943 624.051 352.879 626.816 354.476 630.359L450.851 844.105C452.448 847.649 452.576 851.679 451.207 855.312C449.838 858.944 447.083 861.879 443.549 863.473L336.948 911.537C322.812 917.911 311.793 929.653 306.316 944.181C300.838 958.71 301.351 974.833 307.741 989.006" stroke="#3D3C3C" stroke-linecap="round" stroke-linejoin="round"/>
<path d="M104.397 1000.31C105.995 1003.86 108.931 1006.62 112.559 1008C116.188 1009.38 120.212 1009.26 123.746 1007.67L230.347 959.601C244.483 953.228 260.579 952.745 275.093 958.259C289.607 963.774 301.351 974.833 307.741 989.006L199.32 748.541C192.93 734.369 181.186 723.309 166.672 717.795C152.158 712.28 136.062 712.763 121.926 719.137L15.3251 767.201C11.7911 768.794 9.03639 771.73 7.66704 775.362C6.2977 778.994 6.42588 783.025 8.02338 786.568L104.397 1000.31Z" fill="#FDBF0F" stroke="#3D3C3C" stroke-linecap="round" stroke-linejoin="round"/>
<path d="M111.32 721.541C104.93 707.369 104.417 691.245 109.895 676.717C115.372 662.189 126.391 650.446 140.527 644.072L247.128 596.008C250.662 594.415 254.686 594.294 258.314 595.673C261.943 597.051 264.879 599.816 266.476 603.359L362.851 817.105C364.448 820.649 364.576 824.679 363.207 828.312C361.838 831.944 359.083 834.879 355.549 836.473L248.948 884.537C234.812 890.911 223.793 902.653 218.316 917.181C212.838 931.71 213.351 947.833 219.741 962.006" stroke="#3AB8EB" stroke-width="2" stroke-linecap="round" stroke-linejoin="round"/>
<path d="M16.3975 973.314C17.995 976.858 20.9309 979.622 24.5595 981.001C28.188 982.38 32.2119 982.259 35.746 980.666L142.347 932.601C156.483 926.228 172.579 925.745 187.093 931.259C201.607 936.774 213.351 947.833 219.741 962.006L111.32 721.541C104.93 707.369 93.1862 696.309 78.672 690.795C64.1578 685.28 48.0622 685.763 33.9261 692.137L-72.6749 740.201C-76.2089 741.794 -78.9636 744.73 -80.333 748.362C-81.7023 751.994 -81.5741 756.025 -79.9766 759.568L16.3975 973.314Z" stroke="#3AB8EB" stroke-width="2" stroke-linecap="round" stroke-linejoin="round"/>
<path d="M165.025 4.34002C153.69 -20.8001 152.78 -49.4019 162.497 -75.1734C172.213 -100.945 191.759 -121.775 216.835 -133.081L405.934 -218.342C412.203 -221.169 419.341 -221.383 425.778 -218.938C432.214 -216.492 437.422 -211.587 440.256 -205.302L611.214 173.861C614.047 180.146 614.275 187.297 611.846 193.74C609.417 200.182 604.53 205.39 598.261 208.217L409.162 293.478C384.086 304.784 364.54 325.614 354.824 351.385C345.108 377.157 346.017 405.759 357.352 430.899" stroke="url(#paint0_linear_1147_989)" stroke-width="5" stroke-linecap="round" stroke-linejoin="round"/>
<path d="M-3.35767 450.959C-0.523877 457.245 4.68422 462.149 11.1209 464.595C17.5575 467.04 24.6955 466.826 30.9645 464L220.063 378.739C245.139 367.432 273.691 366.576 299.438 376.358C325.185 386.14 346.017 405.759 357.352 430.899L165.025 4.34002C153.69 -20.8001 132.857 -40.4191 107.111 -50.2011C81.3642 -59.983 52.8123 -59.1267 27.7362 -47.8203L-161.363 37.4407C-167.632 40.2672 -172.518 45.4748 -174.947 51.9177C-177.376 58.3605 -177.149 65.511 -174.315 71.796L-3.35767 450.959Z" stroke="url(#paint1_linear_1147_989)" stroke-width="5" stroke-linecap="round" stroke-linejoin="round"/>
<path d="M1191.66 685.283C1193.49 678.417 1197.97 672.558 1204.11 668.995C1210.24 665.432 1217.54 664.457 1224.39 666.285L1276.03 680.066C1277.75 680.522 1279.21 681.643 1280.09 683.179C1280.98 684.716 1281.22 686.544 1280.76 688.26L1253.13 791.815C1252.67 793.531 1251.55 794.996 1250.02 795.887C1248.48 796.778 1246.66 797.021 1244.95 796.564L1193.3 782.783C1186.45 780.956 1179.16 781.931 1173.02 785.494C1166.88 789.057 1162.4 794.916 1160.57 801.782" fill="#F9784B"/>
<path d="M1191.66 685.283C1193.49 678.417 1197.97 672.558 1204.11 668.995C1210.24 665.432 1217.54 664.457 1224.39 666.285L1276.03 680.066C1277.75 680.522 1279.21 681.643 1280.09 683.179C1280.98 684.716 1281.22 686.544 1280.76 688.26L1253.13 791.815C1252.67 793.531 1251.55 794.996 1250.02 795.887C1248.48 796.778 1246.66 797.021 1244.95 796.564L1193.3 782.783C1186.45 780.956 1179.16 781.931 1173.02 785.494C1166.88 789.057 1162.4 794.916 1160.57 801.782" stroke="#3D3C3C" stroke-linecap="round" stroke-linejoin="round"/>
<path d="M1085.28 747.027C1084.82 748.743 1085.07 750.571 1085.95 752.108C1086.84 753.645 1088.3 754.765 1090.01 755.222L1141.66 769.003C1148.51 770.83 1154.35 775.31 1157.89 781.457C1161.44 787.605 1162.4 794.916 1160.57 801.782L1191.66 685.283C1193.49 678.417 1192.53 671.106 1188.98 664.959C1185.43 658.811 1179.59 654.331 1172.74 652.504L1121.1 638.723C1119.39 638.266 1117.56 638.509 1116.03 639.4C1114.49 640.291 1113.37 641.756 1112.92 643.472L1085.28 747.027Z" fill="#F9784B" stroke="#3D3C3C" stroke-linecap="round" stroke-linejoin="round"/>
<path d="M1148.01 703.139C1149.84 696.272 1154.32 690.414 1160.46 686.851C1166.6 683.288 1173.89 682.313 1180.74 684.14L1232.39 697.921C1234.1 698.378 1235.56 699.498 1236.45 701.035C1237.33 702.572 1237.57 704.4 1237.12 706.116L1209.48 809.671C1209.02 811.387 1207.91 812.852 1206.37 813.743C1204.84 814.633 1203.01 814.877 1201.3 814.42L1149.65 800.639C1142.81 798.812 1135.51 799.787 1129.37 803.35C1123.23 806.912 1118.76 812.771 1116.92 819.637" stroke="#F9784B" stroke-width="2" stroke-linecap="round" stroke-linejoin="round"/>
<path d="M1041.64 764.883C1041.18 766.599 1041.42 768.427 1042.3 769.964C1043.19 771.5 1044.65 772.62 1046.36 773.077L1098.01 786.858C1104.86 788.686 1110.7 793.166 1114.25 799.313C1117.79 805.461 1118.76 812.771 1116.92 819.637L1148.01 703.139C1149.84 696.272 1148.88 688.962 1145.33 682.814C1141.78 676.667 1135.94 672.187 1129.1 670.359L1077.45 656.578C1075.74 656.122 1073.91 656.365 1072.38 657.256C1070.85 658.147 1069.73 659.611 1069.27 661.328L1041.64 764.883Z" stroke="#F9784B" stroke-width="2" stroke-linecap="round" stroke-linejoin="round"/>
<path d="M1240.32 142.541C1233.93 128.369 1233.42 112.245 1238.89 97.7168C1244.37 83.1886 1255.39 71.4461 1269.53 65.0723L1376.13 17.008C1379.66 15.4146 1383.69 15.2939 1387.31 16.6725C1390.94 18.0511 1393.88 20.8161 1395.48 24.3591L1491.85 238.105C1493.45 241.649 1493.58 245.679 1492.21 249.312C1490.84 252.944 1488.08 255.879 1484.55 257.473L1377.95 305.537C1363.81 311.911 1352.79 323.653 1347.32 338.181C1341.84 352.71 1342.35 368.833 1348.74 383.006" fill="#3AB8EB"/>
<path d="M1240.32 142.541C1233.93 128.369 1233.42 112.245 1238.89 97.7168C1244.37 83.1886 1255.39 71.4461 1269.53 65.0723L1376.13 17.008C1379.66 15.4146 1383.69 15.2939 1387.31 16.6725C1390.94 18.0511 1393.88 20.8161 1395.48 24.3591L1491.85 238.105C1493.45 241.649 1493.58 245.679 1492.21 249.312C1490.84 252.944 1488.08 255.879 1484.55 257.473L1377.95 305.537C1363.81 311.911 1352.79 323.653 1347.32 338.181C1341.84 352.71 1342.35 368.833 1348.74 383.006" stroke="#3D3C3C" stroke-linecap="round" stroke-linejoin="round"/>
<path d="M1145.4 394.314C1146.99 397.858 1149.93 400.622 1153.56 402.001C1157.19 403.38 1161.21 403.259 1164.75 401.666L1271.35 353.601C1285.48 347.228 1301.58 346.745 1316.09 352.259C1330.61 357.774 1342.35 368.833 1348.74 383.006L1240.32 142.541C1233.93 128.369 1222.19 117.309 1207.67 111.795C1193.16 106.28 1177.06 106.763 1162.93 113.137L1056.33 161.201C1052.79 162.794 1050.04 165.73 1048.67 169.362C1047.3 172.994 1047.43 177.025 1049.02 180.568L1145.4 394.314Z" fill="#3AB8EB" stroke="#3D3C3C" stroke-linecap="round" stroke-linejoin="round"/>
<path d="M1260.32 51.5411C1253.93 37.3688 1253.42 21.245 1258.89 6.71683C1264.37 -7.81137 1275.39 -19.5539 1289.53 -25.9277L1396.13 -73.992C1399.66 -75.5854 1403.69 -75.7061 1407.31 -74.3275C1410.94 -72.9489 1413.88 -70.1839 1415.48 -66.6409L1511.85 147.105C1513.45 150.649 1513.58 154.679 1512.21 158.312C1510.84 161.944 1508.08 164.879 1504.55 166.473L1397.95 214.537C1383.81 220.911 1372.79 232.653 1367.32 247.181C1361.84 261.71 1362.35 277.833 1368.74 292.006" stroke="#FDBF0F" stroke-width="2" stroke-linecap="round" stroke-linejoin="round"/>
<path d="M1165.4 303.314C1166.99 306.858 1169.93 309.622 1173.56 311.001C1177.19 312.38 1181.21 312.259 1184.75 310.666L1291.35 262.601C1305.48 256.228 1321.58 255.745 1336.09 261.259C1350.61 266.774 1362.35 277.833 1368.74 292.006L1260.32 51.5411C1253.93 37.3688 1242.19 26.3089 1227.67 20.7945C1213.16 15.2801 1197.06 15.7629 1182.93 22.1366L1076.33 70.2009C1072.79 71.7944 1070.04 74.73 1068.67 78.3621C1067.3 81.9941 1067.43 86.0251 1069.02 89.5681L1165.4 303.314Z" stroke="#FDBF0F" stroke-width="2" stroke-linecap="round" stroke-linejoin="round"/>
</g>
</g>
<defs>
<linearGradient id="paint0_linear_1147_989" x1="275.928" y1="-159.725" x2="510.995" y2="361.624" gradientUnits="userSpaceOnUse">
<stop stop-color="#3AB8EB"/>
<stop offset="0.352083" stop-color="#F9784B"/>
<stop offset="0.732292" stop-color="#FDBF0F"/>
<stop offset="1" stop-color="white"/>
</linearGradient>
<linearGradient id="paint1_linear_1147_989" x1="-31.3572" y1="-21.1763" x2="203.709" y2="500.174" gradientUnits="userSpaceOnUse">
<stop stop-color="#3AB8EB"/>
<stop offset="0.352083" stop-color="#F9784B"/>
<stop offset="0.732292" stop-color="#FDBF0F"/>
<stop offset="1" stop-color="white"/>
</linearGradient>
<clipPath id="clip0_1147_989">
<rect width="1440" height="900" fill="white"/>
</clipPath>
</defs>
</svg>
